<?xml version="1.0" encoding="UTF-8"?>
<svg width="180px" height="32px" viewBox="0 0 180 32" version="1.1" xmlns="http://www.w3.org/2000/svg" xmlns:xlink="http://www.w3.org/1999/xlink">
    <!-- Generator: Sketch 49.3 (51167) - http://www.bohemiancoding.com/sketch -->
    <title>logo</title>
    <desc>Created with Sketch.</desc>
    <defs>
        <linearGradient x1="58.3631277%" y1="0%" x2="58.3631298%" y2="100%" id="linearGradient-1">
            <stop stop-color="#FFFFFF" offset="0%"></stop>
            <stop stop-color="#DEECFF" offset="99.826138%"></stop>
        </linearGradient>
    </defs>
    <g id="Page-1" stroke="none" stroke-width="1" fill="none" fill-rule="evenodd">
        <g id="标注" transform="translate(-360.000000, -21.000000)">
            <g id="logo" transform="translate(360.000000, 21.000000)">
                <path d="M22.5658883,23.7887245 C21.2106894,25.1445146 18.0716183,25.8221141 14.931956,25.8221141 C11.7922936,25.8221141 8.65233567,25.1445146 7.29595424,23.7887245 C4.58614774,21.0759616 4.58733029,11.2303708 7.29772806,8.5208599 C8.80104096,7.017547 12.2271753,6.4818532 14.9322516,6.4818532 C17.6373279,6.4818532 21.0631666,7.017547 22.5658883,8.5208599 C24.0697924,10.0226946 24.6054862,13.4485333 24.6051906,16.1542009 C24.6051906,18.8592772 24.0692012,22.2854116 22.5658883,23.7887245 M26.1262417,4.92650824 C30.0629407,8.86438981 30.0629407,23.1637484 26.1262417,27.1013343 C24.3213793,28.9059011 20.0727835,30.02666 15.0386808,30.02666 C10.0042825,30.02666 5.75627802,28.9059011 3.95230254,27.1013343 C0.0158991525,23.1637484 0.0158991525,8.86438981 3.95230254,4.92650824 C5.75716493,3.12135021 10.0057607,2 15.040159,2 C20.0742617,2 24.3222662,3.12135021 26.1262417,4.92650824 Z M43.3661217,29.5126364 L30.9357787,16.5350697 C30.6501936,16.2474152 30.6501936,15.7838567 30.9357787,15.4982716 L43.369965,2.52070502 C43.6555501,2.23689373 44.2211032,2.00215815 44.6258299,2.00215815 L48.8951203,2.00215815 C49.1937134,2.00215815 49.2661444,2.36520008 49.1106395,2.52070502 L36.7373544,15.4982716 C36.447926,15.7838567 36.447926,16.2474152 36.7373544,16.5350697 L49.1088656,29.5126364 C49.2750135,29.7287468 49.1966698,30.0291138 48.8951203,30.0291138 L44.6240561,30.0291138 C44.2190337,30.0291138 43.6534806,29.7964477 43.3661217,29.5126364 Z M83.5281087,29.2920618 L83.5281087,19.7965049 C83.5281087,19.393552 83.3655085,18.7750799 83.163293,18.4229765 L72.7947207,2.64277343 C72.5945746,2.29067006 72.7607225,2.00331113 73.1654492,2.00331113 L76.3657171,2.00331113 C76.7707394,2.00331113 77.2718437,2.28889624 77.4796764,2.63508688 L85.4858153,13.7610805 C85.6918741,14.1069755 86.0345171,14.1069755 86.2426454,13.7610805 L94.2487844,2.63508688 C94.4548432,2.28889624 94.958017,2.00331113 95.362448,2.00331113 L98.5612377,2.00331113 C98.9659644,2.00331113 99.1321123,2.29067006 98.9316706,2.64277343 L88.5630983,18.4229765 C88.3644304,18.7750799 88.2000564,19.393552 88.2000564,19.7965049 L88.2000564,29.2920618 C88.2000564,29.698858 87.8671694,30.0299711 87.4624427,30.0299711 L84.2639486,30.0299711 C83.8592219,30.0299711 83.5281087,29.698858 83.5281087,29.2920618 Z M75.2507822,29.3299329 C75.3793842,29.7142606 75.1523351,30.0300007 74.7476084,30.0300007 L71.5476362,30.0300007 C71.1429095,30.0300007 70.7098016,29.7142606 70.5806084,29.3299329 L68.4393114,23.5919191 C68.3124832,23.2075913 67.8778972,22.8918512 67.4731704,22.8918512 L58.3202565,22.8918512 C57.9155298,22.8918512 57.4803525,23.2075913 57.35382,23.5919191 L55.4528756,29.3299329 C55.3242736,29.7142606 54.889392,30.0300007 54.4843696,30.0300007 L51.2843974,30.0300007 C50.8796707,30.0300007 50.6526216,29.7142606 50.7812236,29.3299329 L60.5670958,2.70311289 C60.6956978,2.31730693 61.1308751,2.0033407 61.5356019,2.0033407 L64.496404,2.0033407 C64.8996525,2.0033407 65.336308,2.31730693 65.4652056,2.70311289 L75.2507822,29.3299329 Z M66.4954997,19.2150169 C66.900522,19.2150169 67.1255016,18.9010507 66.9986735,18.5170185 L63.4903521,9.58021508 C63.3638196,9.19618294 62.6631604,9.19618294 62.5384017,9.58021508 L59.0351062,18.5170185 C58.9065042,18.9010507 59.1335532,19.2150169 59.5382799,19.2150169 L66.4954997,19.2150169 Z" id="Combined-Shape" fill="url(#linearGradient-1)"></path>
                <path d="M103.33,15.76 C102.898,16.426 102.412,17.002 101.872,17.488 L101.098,16.516 C101.962,15.724 102.682,14.608 103.276,13.168 L104.446,13.42 C104.284,13.852 104.122,14.248 103.96,14.608 L109.108,14.608 L109.108,15.76 L106.39,15.76 C106.354,16.372 106.3,16.966 106.228,17.506 L109.612,17.506 L109.612,18.694 L105.958,18.694 C105.904,18.874 105.85,19.036 105.814,19.198 C107.182,19.882 108.334,20.584 109.27,21.304 L108.352,22.222 C107.596,21.538 106.624,20.854 105.4,20.134 C104.68,21.394 103.42,22.438 101.638,23.266 L100.774,22.204 C102.646,21.376 103.87,20.35 104.464,19.126 L104.644,18.694 L101.026,18.694 L101.026,17.506 L104.968,17.506 C105.076,16.948 105.13,16.372 105.166,15.76 L103.33,15.76 Z M110.368,14.518 L116.29,14.518 L116.29,21.106 L110.368,21.106 L110.368,14.518 Z M115.03,19.954 L115.03,15.67 L111.628,15.67 L111.628,19.954 L115.03,19.954 Z M115.012,22.402 L115.012,29.836 L113.698,29.836 L113.698,29.026 L104.788,29.026 L104.788,29.836 L103.492,29.836 L103.492,22.402 L115.012,22.402 Z M104.788,27.874 L113.698,27.874 L113.698,26.326 L104.788,26.326 L104.788,27.874 Z M104.788,25.192 L113.698,25.192 L113.698,23.554 L104.788,23.554 L104.788,25.192 Z M133.012,25.21 L126.928,25.21 C127.756,25.894 128.368,26.488 128.8,26.992 L127.9,27.64 C127.432,27.064 126.82,26.434 126.028,25.75 L126.874,25.21 L120.394,25.21 L120.394,24.238 L131.752,24.238 L131.752,23.122 L121.15,23.122 L121.15,22.222 L131.752,22.222 L131.752,21.124 L120.61,21.124 L120.61,20.17 L122.716,20.17 L122.716,19.162 L119.476,19.162 L119.476,18.226 L122.716,18.226 L122.716,17.2 L120.16,17.2 L120.16,16.264 L122.716,16.264 L122.716,15.256 L119.782,15.256 L119.782,14.32 L122.716,14.32 L122.716,13.348 L123.976,13.348 L123.976,14.32 L126.604,14.32 L126.604,15.256 L123.976,15.256 L123.976,16.264 L126.37,16.264 L126.37,17.2 L123.976,17.2 L123.976,18.226 L126.604,18.226 L126.604,19.162 L123.976,19.162 L123.976,20.17 L130.096,20.17 L130.096,19.162 L127.252,19.162 L127.252,18.226 L130.096,18.226 L130.096,17.2 L127.63,17.2 L127.63,16.264 L130.096,16.264 L130.096,15.256 L127.342,15.256 L127.342,14.32 L130.096,14.32 L130.096,13.348 L131.356,13.348 L131.356,14.32 L134.254,14.32 L134.254,15.256 L131.356,15.256 L131.356,16.264 L133.876,16.264 L133.876,17.2 L131.356,17.2 L131.356,18.226 L134.506,18.226 L134.506,19.162 L131.356,19.162 L131.356,20.17 L133.012,20.17 L133.012,25.21 Z M120.682,25.948 L121.816,26.182 C121.402,27.442 120.844,28.54 120.124,29.476 L119.08,28.828 C119.8,27.964 120.34,26.992 120.682,25.948 Z M129.52,29.494 L124.66,29.494 C123.598,29.494 123.076,29.026 123.076,28.108 L123.076,25.876 L124.318,25.876 L124.318,27.838 C124.318,28.198 124.534,28.378 125.002,28.378 L129.286,28.378 C129.646,28.378 129.898,28.306 130.042,28.162 C130.24,27.964 130.384,27.406 130.456,26.488 L131.626,26.866 C131.518,28.126 131.284,28.882 130.942,29.17 C130.618,29.386 130.15,29.494 129.52,29.494 Z M132.958,25.678 C133.966,26.758 134.74,27.712 135.28,28.522 L134.326,29.188 C133.75,28.306 132.994,27.334 132.022,26.254 L132.958,25.678 Z M147.016,19.486 C146.656,20.242 146.278,20.908 145.846,21.52 L145.072,20.566 C146.224,18.766 146.998,16.336 147.394,13.276 L148.672,13.492 C148.528,14.41 148.348,15.256 148.168,16.048 L152.848,16.048 L152.848,17.29 L151.732,17.29 C151.624,20.17 151.03,22.654 149.95,24.706 C150.814,26.254 151.948,27.55 153.316,28.612 L152.668,29.746 C151.264,28.684 150.13,27.388 149.248,25.876 C148.204,27.424 146.836,28.72 145.18,29.746 L144.46,28.576 C146.206,27.568 147.574,26.236 148.582,24.616 C147.862,23.104 147.34,21.394 147.016,19.486 Z M150.526,17.29 L147.844,17.29 C147.826,17.326 147.808,17.362 147.808,17.398 C148.024,19.63 148.492,21.61 149.248,23.32 C150.022,21.574 150.454,19.558 150.526,17.29 Z M137.854,15.004 L140.212,15.004 L140.212,13.402 L141.454,13.402 L141.454,15.004 L143.38,15.004 L143.38,16.156 L141.454,16.156 L141.454,17.992 L142.498,17.992 C143.434,16.804 144.262,15.49 144.964,14.086 L145.972,14.608 C145.324,15.832 144.64,16.966 143.92,17.992 L145.252,17.992 L145.252,19.198 L143.002,19.198 C142.516,19.774 142.03,20.314 141.526,20.818 L144.586,20.818 L144.586,21.754 C143.974,22.474 143.254,23.194 142.426,23.914 L142.426,24.796 C143.614,24.616 144.694,24.382 145.63,24.13 L145.63,25.336 C144.748,25.57 143.686,25.786 142.426,25.966 L142.426,28.054 C142.426,29.098 141.904,29.62 140.86,29.62 L139.096,29.62 L138.772,28.45 C139.438,28.504 139.978,28.54 140.374,28.54 C140.896,28.54 141.166,28.252 141.166,27.712 L141.166,26.146 C139.978,26.29 138.646,26.434 137.206,26.56 L137.026,25.318 C138.538,25.246 139.906,25.12 141.166,24.976 L141.166,23.662 C141.814,23.176 142.444,22.618 143.056,21.97 L140.266,21.97 C139.366,22.708 138.448,23.356 137.476,23.896 L136.666,22.978 C137.242,22.654 137.782,22.312 138.286,21.97 L137.872,21.97 L137.872,20.818 L139.78,20.818 C140.392,20.296 140.95,19.756 141.472,19.198 L137.008,19.198 L137.008,17.992 L140.212,17.992 L140.212,16.156 L137.854,16.156 L137.854,15.004 Z M154.936,14.896 L162.406,14.896 C162.172,14.374 161.92,13.906 161.65,13.474 L163.144,13.24 C163.396,13.726 163.63,14.284 163.864,14.896 L171.1,14.896 L171.1,16.12 L166.87,16.12 C168.526,17.434 169.786,18.586 170.65,19.558 L169.57,20.314 C169.174,19.846 168.724,19.36 168.22,18.874 C165.232,19.126 161.362,19.324 156.592,19.504 L156.304,18.37 C156.556,18.334 156.772,18.262 156.934,18.19 C157.762,17.686 158.698,16.984 159.706,16.12 L154.936,16.12 L154.936,14.896 Z M161.326,16.12 C160.282,17.092 159.328,17.848 158.446,18.388 C161.884,18.28 164.8,18.118 167.212,17.92 C166.78,17.506 166.312,17.092 165.808,16.696 L166.708,16.12 L161.326,16.12 Z M158.932,24.274 L158.932,25.696 L167.122,25.696 L167.122,24.274 L158.932,24.274 Z M167.122,23.158 L167.122,21.628 L158.932,21.628 L158.932,23.158 L167.122,23.158 Z M158.932,26.812 L158.932,29.8 L157.636,29.8 L157.636,20.512 L168.436,20.512 L168.436,28.09 C168.436,29.206 167.86,29.764 166.708,29.764 L164.872,29.764 L164.53,28.504 L166.276,28.558 C166.834,28.558 167.122,28.306 167.122,27.82 L167.122,26.812 L158.932,26.812 Z" id="智慧教育网" fill-opacity="0.800300045" fill="#FFFFFF"></path>
            </g>
        </g>
    </g>
</svg>